<mxfile host="Electron" agent="Mozilla/5.0 (Windows NT 10.0; Win64; x64) AppleWebKit/537.36 (KHTML, like Gecko) draw.io/28.1.2 Chrome/138.0.7204.243 Electron/37.4.0 Safari/537.36" version="28.1.2">
  <diagram name="Page-1" id="M9cu1P_xfOqBuiW0zTSi">
    <mxGraphModel dx="1426" dy="841" grid="1" gridSize="10" guides="1" tooltips="1" connect="1" arrows="1" fold="1" page="1" pageScale="1" pageWidth="850" pageHeight="1100" math="0" shadow="0">
      <root>
        <mxCell id="0" />
        <mxCell id="1" parent="0" />
        <mxCell id="IOZ8SwsVuGF0DGhdB7xj-1" value="" style="rounded=0;whiteSpace=wrap;html=1;" parent="1" vertex="1">
          <mxGeometry x="290" y="650" width="1020" height="860" as="geometry" />
        </mxCell>
        <mxCell id="IOZ8SwsVuGF0DGhdB7xj-3" value="user" style="shape=umlActor;verticalLabelPosition=bottom;verticalAlign=top;html=1;outlineConnect=0;" parent="1" vertex="1">
          <mxGeometry x="150" y="800" width="30" height="60" as="geometry" />
        </mxCell>
        <mxCell id="IOZ8SwsVuGF0DGhdB7xj-4" value="&lt;font style=&quot;font-size: 15px;&quot;&gt;Send Email&lt;/font&gt;" style="text;html=1;align=center;verticalAlign=middle;whiteSpace=wrap;rounded=0;" parent="1" vertex="1">
          <mxGeometry x="745" y="670" width="105" height="30" as="geometry" />
        </mxCell>
        <mxCell id="IOZ8SwsVuGF0DGhdB7xj-6" value="compose an email" style="ellipse;whiteSpace=wrap;html=1;" parent="1" vertex="1">
          <mxGeometry x="400" y="690" width="120" height="80" as="geometry" />
        </mxCell>
        <mxCell id="IOZ8SwsVuGF0DGhdB7xj-7" value="send an email" style="ellipse;whiteSpace=wrap;html=1;" parent="1" vertex="1">
          <mxGeometry x="497.5" y="840" width="120" height="80" as="geometry" />
        </mxCell>
        <mxCell id="IOZ8SwsVuGF0DGhdB7xj-8" value="reply to emails" style="ellipse;whiteSpace=wrap;html=1;" parent="1" vertex="1">
          <mxGeometry x="450" y="960" width="120" height="80" as="geometry" />
        </mxCell>
        <mxCell id="IOZ8SwsVuGF0DGhdB7xj-9" value="forward an email" style="ellipse;whiteSpace=wrap;html=1;" parent="1" vertex="1">
          <mxGeometry x="450" y="1120" width="120" height="80" as="geometry" />
        </mxCell>
        <mxCell id="IOZ8SwsVuGF0DGhdB7xj-10" value="" style="endArrow=classic;html=1;rounded=0;entryX=1;entryY=0.5;entryDx=0;entryDy=0;exitX=0.067;exitY=0.525;exitDx=0;exitDy=0;exitPerimeter=0;" parent="1" source="IOZ8SwsVuGF0DGhdB7xj-11" target="IOZ8SwsVuGF0DGhdB7xj-8" edge="1">
          <mxGeometry width="50" height="50" relative="1" as="geometry">
            <mxPoint x="510" y="1060" as="sourcePoint" />
            <mxPoint x="560" y="1010" as="targetPoint" />
          </mxGeometry>
        </mxCell>
        <mxCell id="IOZ8SwsVuGF0DGhdB7xj-11" value="reply for all user" style="ellipse;whiteSpace=wrap;html=1;" parent="1" vertex="1">
          <mxGeometry x="700" y="950" width="120" height="80" as="geometry" />
        </mxCell>
        <mxCell id="IOZ8SwsVuGF0DGhdB7xj-12" value="reply for an individual" style="ellipse;whiteSpace=wrap;html=1;" parent="1" vertex="1">
          <mxGeometry x="700" y="1050" width="120" height="80" as="geometry" />
        </mxCell>
        <mxCell id="IOZ8SwsVuGF0DGhdB7xj-13" value="" style="endArrow=classic;html=1;rounded=0;entryX=1;entryY=1;entryDx=0;entryDy=0;exitX=0;exitY=0.5;exitDx=0;exitDy=0;" parent="1" source="IOZ8SwsVuGF0DGhdB7xj-12" target="IOZ8SwsVuGF0DGhdB7xj-8" edge="1">
          <mxGeometry width="50" height="50" relative="1" as="geometry">
            <mxPoint x="630" y="1060" as="sourcePoint" />
            <mxPoint x="680" y="1010" as="targetPoint" />
          </mxGeometry>
        </mxCell>
        <mxCell id="IOZ8SwsVuGF0DGhdB7xj-15" value="select a recipients" style="ellipse;whiteSpace=wrap;html=1;" parent="1" vertex="1">
          <mxGeometry x="660" y="1180" width="120" height="80" as="geometry" />
        </mxCell>
        <mxCell id="IOZ8SwsVuGF0DGhdB7xj-17" value="The system" style="shape=cube;whiteSpace=wrap;html=1;boundedLbl=1;backgroundOutline=1;darkOpacity=0.05;darkOpacity2=0.1;" parent="1" vertex="1">
          <mxGeometry x="1420" y="1010" width="120" height="80" as="geometry" />
        </mxCell>
        <mxCell id="IOZ8SwsVuGF0DGhdB7xj-18" value="" style="endArrow=none;html=1;rounded=0;entryX=0;entryY=0.5;entryDx=0;entryDy=0;exitX=1;exitY=1;exitDx=0;exitDy=0;exitPerimeter=0;" parent="1" source="IOZ8SwsVuGF0DGhdB7xj-3" target="IOZ8SwsVuGF0DGhdB7xj-6" edge="1">
          <mxGeometry width="50" height="50" relative="1" as="geometry">
            <mxPoint x="200" y="1140" as="sourcePoint" />
            <mxPoint x="250" y="1090" as="targetPoint" />
          </mxGeometry>
        </mxCell>
        <mxCell id="IOZ8SwsVuGF0DGhdB7xj-21" value="" style="endArrow=none;html=1;rounded=0;exitX=1;exitY=1;exitDx=0;exitDy=0;exitPerimeter=0;" parent="1" source="IOZ8SwsVuGF0DGhdB7xj-3" target="IOZ8SwsVuGF0DGhdB7xj-9" edge="1">
          <mxGeometry width="50" height="50" relative="1" as="geometry">
            <mxPoint x="360" y="1140" as="sourcePoint" />
            <mxPoint x="410" y="1090" as="targetPoint" />
          </mxGeometry>
        </mxCell>
        <mxCell id="IOZ8SwsVuGF0DGhdB7xj-24" value="" style="endArrow=none;html=1;rounded=0;entryX=0;entryY=0;entryDx=0;entryDy=30;entryPerimeter=0;exitX=1;exitY=0.5;exitDx=0;exitDy=0;" parent="1" source="IOZ8SwsVuGF0DGhdB7xj-26" target="IOZ8SwsVuGF0DGhdB7xj-17" edge="1">
          <mxGeometry width="50" height="50" relative="1" as="geometry">
            <mxPoint x="633.7499999999932" y="1439.9999999999995" as="sourcePoint" />
            <mxPoint x="1330" y="1090" as="targetPoint" />
          </mxGeometry>
        </mxCell>
        <mxCell id="IOZ8SwsVuGF0DGhdB7xj-26" value="perform an antivirus scan on all attachements before sending an email" style="ellipse;whiteSpace=wrap;html=1;" parent="1" vertex="1">
          <mxGeometry x="1080" y="800" width="150" height="80" as="geometry" />
        </mxCell>
        <mxCell id="IOZ8SwsVuGF0DGhdB7xj-27" value="The email has attached files" style="shape=note;whiteSpace=wrap;html=1;backgroundOutline=1;darkOpacity=0.05;" parent="1" vertex="1">
          <mxGeometry x="1020" y="750" width="190" height="40" as="geometry" />
        </mxCell>
        <mxCell id="IOZ8SwsVuGF0DGhdB7xj-31" value="&amp;lt;&amp;lt;extend&amp;gt;&amp;gt;" style="html=1;verticalAlign=bottom;labelBackgroundColor=none;endArrow=open;endFill=0;dashed=1;rounded=0;" parent="1" source="IOZ8SwsVuGF0DGhdB7xj-33" target="IOZ8SwsVuGF0DGhdB7xj-8" edge="1">
          <mxGeometry width="160" relative="1" as="geometry">
            <mxPoint x="725.8432708086934" y="1177.1142188716258" as="sourcePoint" />
            <mxPoint x="840" y="1060" as="targetPoint" />
          </mxGeometry>
        </mxCell>
        <mxCell id="IOZ8SwsVuGF0DGhdB7xj-33" value="attache files" style="ellipse;whiteSpace=wrap;html=1;" parent="1" vertex="1">
          <mxGeometry x="850" y="740" width="120" height="80" as="geometry" />
        </mxCell>
        <mxCell id="IOZ8SwsVuGF0DGhdB7xj-34" value="&amp;lt;&amp;lt;extend&amp;gt;&amp;gt;" style="html=1;verticalAlign=bottom;labelBackgroundColor=none;endArrow=open;endFill=0;dashed=1;rounded=0;entryX=1;entryY=0;entryDx=0;entryDy=0;" parent="1" source="IOZ8SwsVuGF0DGhdB7xj-33" target="IOZ8SwsVuGF0DGhdB7xj-7" edge="1">
          <mxGeometry width="160" relative="1" as="geometry">
            <mxPoint x="840" y="1282" as="sourcePoint" />
            <mxPoint x="700" y="1130" as="targetPoint" />
          </mxGeometry>
        </mxCell>
        <mxCell id="IOZ8SwsVuGF0DGhdB7xj-35" value="&amp;lt;&amp;lt;include&amp;gt;&amp;gt;" style="html=1;verticalAlign=bottom;labelBackgroundColor=none;endArrow=open;endFill=0;dashed=1;rounded=0;entryX=0;entryY=0.5;entryDx=0;entryDy=0;exitX=1;exitY=0.5;exitDx=0;exitDy=0;" parent="1" source="IOZ8SwsVuGF0DGhdB7xj-33" target="IOZ8SwsVuGF0DGhdB7xj-26" edge="1">
          <mxGeometry width="160" relative="1" as="geometry">
            <mxPoint x="680" y="1090" as="sourcePoint" />
            <mxPoint x="840" y="1090" as="targetPoint" />
          </mxGeometry>
        </mxCell>
        <mxCell id="KTnVbOI0FFUZEvdotDHR-5" value="&amp;lt;&amp;lt;include&amp;gt;&amp;gt;" style="html=1;verticalAlign=bottom;labelBackgroundColor=none;endArrow=open;endFill=0;dashed=1;rounded=0;entryX=0.413;entryY=-0.012;entryDx=0;entryDy=0;entryPerimeter=0;" edge="1" parent="1" source="IOZ8SwsVuGF0DGhdB7xj-6" target="IOZ8SwsVuGF0DGhdB7xj-7">
          <mxGeometry width="160" relative="1" as="geometry">
            <mxPoint x="690" y="1080" as="sourcePoint" />
            <mxPoint x="850" y="1080" as="targetPoint" />
          </mxGeometry>
        </mxCell>
        <mxCell id="KTnVbOI0FFUZEvdotDHR-6" value="&amp;lt;&amp;lt;include&amp;gt;&amp;gt;" style="html=1;verticalAlign=bottom;labelBackgroundColor=none;endArrow=open;endFill=0;dashed=1;rounded=0;entryX=0.5;entryY=0;entryDx=0;entryDy=0;exitX=0;exitY=1;exitDx=0;exitDy=0;" edge="1" parent="1" source="IOZ8SwsVuGF0DGhdB7xj-6" target="IOZ8SwsVuGF0DGhdB7xj-8">
          <mxGeometry width="160" relative="1" as="geometry">
            <mxPoint x="690" y="1080" as="sourcePoint" />
            <mxPoint x="850" y="1080" as="targetPoint" />
          </mxGeometry>
        </mxCell>
        <mxCell id="KTnVbOI0FFUZEvdotDHR-7" value="&amp;lt;&amp;lt;include&amp;gt;&amp;gt;" style="html=1;verticalAlign=bottom;labelBackgroundColor=none;endArrow=open;endFill=0;dashed=1;rounded=0;exitX=0.929;exitY=0.75;exitDx=0;exitDy=0;exitPerimeter=0;" edge="1" parent="1" source="IOZ8SwsVuGF0DGhdB7xj-9" target="IOZ8SwsVuGF0DGhdB7xj-15">
          <mxGeometry width="160" relative="1" as="geometry">
            <mxPoint x="690" y="1080" as="sourcePoint" />
            <mxPoint x="850" y="1080" as="targetPoint" />
          </mxGeometry>
        </mxCell>
        <mxCell id="KTnVbOI0FFUZEvdotDHR-8" value="&amp;lt;&amp;lt;include&amp;gt;&amp;gt;" style="html=1;verticalAlign=bottom;labelBackgroundColor=none;endArrow=open;endFill=0;dashed=1;rounded=0;entryX=0;entryY=0;entryDx=0;entryDy=0;" edge="1" parent="1" source="IOZ8SwsVuGF0DGhdB7xj-7" target="IOZ8SwsVuGF0DGhdB7xj-15">
          <mxGeometry width="160" relative="1" as="geometry">
            <mxPoint x="690" y="1080" as="sourcePoint" />
            <mxPoint x="850" y="1080" as="targetPoint" />
          </mxGeometry>
        </mxCell>
      </root>
    </mxGraphModel>
  </diagram>
</mxfile>
